<svg version="1.1" id="Layer_1" xmlns="http://www.w3.org/2000/svg" xmlns:xlink="http://www.w3.org/1999/xlink" x="0px" y="0px"
	 width="100%" viewBox="0 0 640 640" enable-background="new 0 0 640 640" xml:space="preserve">
<path fill="#010101" opacity="1.000000" stroke="none" 
	d="
M574.000000,641.000000 
	C382.666687,641.000000 191.833405,641.000000 1.000077,641.000000 
	C1.000051,427.666748 1.000051,214.333481 1.000026,1.000163 
	C214.333237,1.000108 427.666473,1.000108 640.999756,1.000054 
	C640.999878,214.333191 640.999878,427.666382 640.999939,640.999756 
	C618.833313,641.000000 596.666687,641.000000 574.000000,641.000000 
M467.062744,342.739471 
	C473.929047,341.578674 478.713379,338.046173 480.897675,331.020081 
	C476.910645,330.574493 474.246887,331.205963 471.134216,333.791595 
	C468.646973,335.857697 463.708496,335.981842 460.105316,335.409821 
	C456.555481,334.846252 454.065491,331.786682 453.934662,327.176147 
	C463.365356,327.176147 472.470734,327.176147 481.524994,327.176147 
	C482.794586,315.628052 476.539490,307.008362 466.476013,305.997711 
	C455.469513,304.892395 447.365509,311.593750 446.345367,322.644135 
	C445.256104,334.443665 453.433167,342.742157 467.062744,342.739471 
M190.945572,309.405273 
	C184.371429,315.469452 182.378693,324.066315 185.702911,332.022522 
	C188.659058,339.097748 195.251724,343.181396 203.136688,342.821289 
	C210.967026,342.463684 216.065552,338.613281 218.522339,331.033813 
	C215.020142,330.621185 212.102997,330.408112 209.366516,333.788391 
	C206.447754,337.393860 201.811218,337.086182 197.796829,335.574188 
	C194.354797,334.277740 191.898499,331.684265 191.732330,327.150024 
	C201.221481,327.150024 210.326584,327.150024 219.766968,327.150024 
	C220.005768,319.421204 218.431458,312.786377 211.768188,308.670258 
	C205.119766,304.563385 198.221054,304.826630 190.945572,309.405273 
M387.126801,323.550293 
	C386.373016,312.361786 379.569458,305.755554 368.994751,305.944183 
	C359.190369,306.119080 352.258881,312.990295 351.794342,322.994995 
	C351.294281,333.764709 357.827454,341.761200 367.938049,342.754669 
	C376.963501,343.641510 384.482361,338.637024 385.635651,331.078705 
	C382.000000,330.239563 379.519226,331.599213 376.450317,333.928772 
	C373.805237,335.936676 368.927551,336.085754 365.326172,335.441010 
	C361.862823,334.820984 359.366760,331.709869 359.251526,327.160553 
	C367.678192,327.160553 375.817871,327.111511 383.956238,327.193909 
	C386.075012,327.215332 387.642456,327.027344 387.126801,323.550293 
M313.060028,319.990234 
	C313.060028,315.558136 313.060028,311.126007 313.060028,305.567749 
	C309.834381,306.622955 307.461273,307.399261 304.155060,308.480804 
	C296.444244,304.113556 287.615845,305.054932 281.909760,311.693146 
	C276.200745,318.334778 276.097015,329.835632 281.684753,336.640076 
	C287.438782,343.647034 295.779449,344.647705 305.245819,340.823975 
	C307.662079,341.419373 310.078308,342.014801 313.067688,342.751434 
	C313.067688,334.814484 313.067688,327.856415 313.060028,319.990234 
M423.595245,319.085785 
	C420.562317,317.833832 419.796936,315.797455 422.092133,313.348663 
	C424.410034,310.875702 433.030029,311.268555 434.434265,314.285126 
	C436.399017,318.505890 439.244415,317.017670 442.190125,316.944153 
	C441.064056,308.705963 435.642975,305.226990 425.589874,305.990051 
	C418.743103,306.509735 414.456482,310.028534 414.028656,315.480347 
	C413.617401,320.721252 416.587799,324.090485 423.333191,325.952454 
	C426.690399,326.879150 430.175079,327.460754 433.389252,328.735168 
	C434.792511,329.291626 436.593079,331.252228 436.517731,332.470337 
	C436.438812,333.746735 434.535645,335.455933 433.066620,336.005829 
	C426.860321,338.329041 422.103973,336.112762 419.559235,330.226074 
	C417.420624,330.226074 415.350708,330.226074 413.113983,330.226074 
	C413.175262,331.209198 413.106384,331.886261 413.272491,332.499725 
	C415.589661,341.057465 425.885864,345.295441 435.905396,341.760315 
	C440.335236,340.197418 443.314697,337.317047 443.495697,332.314667 
	C443.679901,327.223419 440.845825,324.226837 436.307343,322.761200 
	C432.368469,321.489227 428.321808,320.551086 423.595245,319.085785 
M244.935959,307.440125 
	C239.893005,307.281403 234.733444,306.392548 229.840668,307.174103 
	C225.161606,307.921478 222.795898,311.803314 222.932907,316.805084 
	C223.057281,321.346222 225.854736,323.744629 229.734695,325.027618 
	C233.982574,326.432220 238.406372,327.323669 242.604126,328.849701 
	C243.886673,329.315918 245.658875,331.343933 245.460892,332.292145 
	C245.164261,333.712738 243.548615,335.381989 242.103378,335.947754 
	C235.942474,338.359406 230.946548,336.114960 228.473480,330.156616 
	C226.413956,330.156616 224.329788,330.156616 222.262619,330.156616 
	C221.757553,339.640259 232.323532,344.077667 241.271835,342.554047 
	C248.507843,341.321930 251.995346,338.137207 252.281479,332.429474 
	C252.561966,326.834045 249.787460,323.840424 242.501144,321.865662 
	C239.136078,320.953644 235.707108,320.219666 232.429657,319.058960 
	C229.353500,317.969513 228.757965,315.678223 231.041214,313.300598 
	C233.388367,310.856476 241.942719,311.333099 243.359070,314.347076 
	C245.347321,318.577972 248.200073,316.951691 250.955231,316.931427 
	C251.366379,316.501465 251.777527,316.071503 252.188660,315.641571 
	C249.990250,313.026276 247.791824,310.410980 244.935959,307.440125 
M325.645477,312.673462 
	C323.000305,305.673920 323.000305,305.673920 316.096893,307.005096 
	C320.403320,317.997253 324.604553,328.975189 329.102264,339.830292 
	C329.582062,340.988373 331.805389,342.061981 333.198669,342.036072 
	C334.803650,342.006134 337.330231,341.103638 337.829071,339.903595 
	C342.337708,329.057465 346.489594,318.063080 350.827087,306.903503 
	C346.117584,305.515717 343.250427,306.137238 341.694641,311.290680 
	C339.546539,318.406036 336.551819,325.265839 333.466187,333.435852 
	C330.668884,326.008789 328.294678,319.705109 325.645477,312.673462 
M273.862244,312.592682 
	C274.723999,310.852051 275.585724,309.111420 276.764862,306.729675 
	C272.984894,306.461182 270.580353,306.290375 267.768585,306.090637 
	C267.768585,302.057098 267.768585,298.288086 267.768585,294.514893 
	C265.294159,294.514893 263.263977,294.514893 260.824707,294.514893 
	C260.824707,298.668030 260.824707,302.423431 260.824707,306.200500 
	C258.444763,306.357788 256.478882,306.487701 254.279221,306.633087 
	C254.279221,308.591705 254.279221,310.340393 254.279221,312.274536 
	C256.511322,312.460266 258.604126,312.634399 261.055328,312.838348 
	C261.055328,322.641541 261.055328,332.235291 261.055328,341.894409 
	C263.526886,341.894409 265.612091,341.894409 268.098907,341.894409 
	C268.098907,331.994812 268.098907,322.396454 268.098907,312.598297 
	C269.992340,312.598297 271.485077,312.598297 273.862244,312.592682 
M405.633362,313.735565 
	C407.518616,313.207001 409.403839,312.678406 411.493530,312.092499 
	C411.493530,310.176636 411.493530,308.264587 411.493530,304.960785 
	C406.896851,306.759979 402.927856,308.313477 399.034058,309.837555 
	C398.140656,305.819214 398.140656,305.819214 392.190308,306.906372 
	C392.190308,318.615967 392.190308,330.329926 392.190308,341.951996 
	C394.445618,341.951996 396.397278,341.951996 398.737152,341.951996 
	C398.737152,336.596161 398.720062,331.481689 398.741943,326.367371 
	C398.763824,321.250916 400.443542,316.947266 405.633362,313.735565 
M171.085175,319.111542 
	C173.320084,314.696136 177.017761,312.573364 181.970703,312.479767 
	C181.970703,310.195282 181.970703,308.157867 181.970703,304.816162 
	C177.417618,306.741547 173.631516,308.342590 169.706375,310.002411 
	C169.857849,304.518646 166.086945,306.573334 163.050278,306.586426 
	C163.050278,318.545563 163.050278,330.279938 163.050278,341.875092 
	C165.269775,341.875092 167.205612,341.875092 168.796051,341.875092 
	C169.481293,334.328888 170.137070,327.107056 171.085175,319.111542 
z"/>
<path fill="#F2F2F2" opacity="1.000000" stroke="none" 
	d="
M466.636658,342.771912 
	C453.433167,342.742157 445.256104,334.443665 446.345367,322.644135 
	C447.365509,311.593750 455.469513,304.892395 466.476013,305.997711 
	C476.539490,307.008362 482.794586,315.628052 481.524994,327.176147 
	C472.470734,327.176147 463.365356,327.176147 453.934662,327.176147 
	C454.065491,331.786682 456.555481,334.846252 460.105316,335.409821 
	C463.708496,335.981842 468.646973,335.857697 471.134216,333.791595 
	C474.246887,331.205963 476.910645,330.574493 480.897675,331.020081 
	C478.713379,338.046173 473.929047,341.578674 466.636658,342.771912 
M471.179382,320.855316 
	C473.124237,320.912628 475.091064,321.064880 473.872833,318.026947 
	C472.299805,314.104187 466.956268,311.391541 462.202362,312.198334 
	C457.431671,313.007996 454.602753,316.035370 454.274841,320.843109 
	C459.604675,320.843109 464.923584,320.843109 471.179382,320.855316 
z"/>
<path fill="#F2F2F2" opacity="1.000000" stroke="none" 
	d="
M191.244141,309.198242 
	C198.221054,304.826630 205.119766,304.563385 211.768188,308.670258 
	C218.431458,312.786377 220.005768,319.421204 219.766968,327.150024 
	C210.326584,327.150024 201.221481,327.150024 191.732330,327.150024 
	C191.898499,331.684265 194.354797,334.277740 197.796829,335.574188 
	C201.811218,337.086182 206.447754,337.393860 209.366516,333.788391 
	C212.102997,330.408112 215.020142,330.621185 218.522339,331.033813 
	C216.065552,338.613281 210.967026,342.463684 203.136688,342.821289 
	C195.251724,343.181396 188.659058,339.097748 185.702911,332.022522 
	C182.378693,324.066315 184.371429,315.469452 191.244141,309.198242 
M196.327682,313.586487 
	C194.575867,315.651855 192.824051,317.717224 190.491745,320.466980 
	C198.776520,320.466980 205.417282,320.466980 212.151581,320.466980 
	C209.971252,312.929749 204.958298,310.632751 196.327682,313.586487 
z"/>
<path fill="#F4F4F4" opacity="1.000000" stroke="none" 
	d="
M387.144104,323.940002 
	C387.642456,327.027344 386.075012,327.215332 383.956238,327.193909 
	C375.817871,327.111511 367.678192,327.160553 359.251526,327.160553 
	C359.366760,331.709869 361.862823,334.820984 365.326172,335.441010 
	C368.927551,336.085754 373.805237,335.936676 376.450317,333.928772 
	C379.519226,331.599213 382.000000,330.239563 385.635651,331.078705 
	C384.482361,338.637024 376.963501,343.641510 367.938049,342.754669 
	C357.827454,341.761200 351.294281,333.764709 351.794342,322.994995 
	C352.258881,312.990295 359.190369,306.119080 368.994751,305.944183 
	C379.569458,305.755554 386.373016,312.361786 387.144104,323.940002 
M369.498688,320.847473 
	C372.897491,320.847473 376.296295,320.847473 379.834320,320.847473 
	C377.856323,314.372223 373.595398,311.411407 367.927795,312.149139 
	C363.010590,312.789215 359.877716,315.981537 359.557465,320.849213 
	C362.556030,320.849213 365.545502,320.849213 369.498688,320.847473 
z"/>
<path fill="#F2F2F2" opacity="1.000000" stroke="none" 
	d="
M313.063843,320.444305 
	C313.067688,327.856415 313.067688,334.814484 313.067688,342.751434 
	C310.078308,342.014801 307.662079,341.419373 305.245819,340.823975 
	C295.779449,344.647705 287.438782,343.647034 281.684753,336.640076 
	C276.097015,329.835632 276.200745,318.334778 281.909760,311.693146 
	C287.615845,305.054932 296.444244,304.113556 304.155060,308.480804 
	C307.461273,307.399261 309.834381,306.622955 313.060028,305.567749 
	C313.060028,311.126007 313.060028,315.558136 313.063843,320.444305 
M284.647125,321.321136 
	C283.570068,329.221466 286.741577,334.921936 292.902374,336.159119 
	C299.485229,337.481079 304.556854,334.335052 306.148895,327.942017 
	C307.862793,321.059540 304.941498,314.669617 299.177460,312.693054 
	C293.034760,310.586639 287.567749,313.585663 284.647125,321.321136 
z"/>
<path fill="#F2F2F2" opacity="1.000000" stroke="none" 
	d="
M423.959015,319.275574 
	C428.321808,320.551086 432.368469,321.489227 436.307343,322.761200 
	C440.845825,324.226837 443.679901,327.223419 443.495697,332.314667 
	C443.314697,337.317047 440.335236,340.197418 435.905396,341.760315 
	C425.885864,345.295441 415.589661,341.057465 413.272491,332.499725 
	C413.106384,331.886261 413.175262,331.209198 413.113983,330.226074 
	C415.350708,330.226074 417.420624,330.226074 419.559235,330.226074 
	C422.103973,336.112762 426.860321,338.329041 433.066620,336.005829 
	C434.535645,335.455933 436.438812,333.746735 436.517731,332.470337 
	C436.593079,331.252228 434.792511,329.291626 433.389252,328.735168 
	C430.175079,327.460754 426.690399,326.879150 423.333191,325.952454 
	C416.587799,324.090485 413.617401,320.721252 414.028656,315.480347 
	C414.456482,310.028534 418.743103,306.509735 425.589874,305.990051 
	C435.642975,305.226990 441.064056,308.705963 442.190125,316.944153 
	C439.244415,317.017670 436.399017,318.505890 434.434265,314.285126 
	C433.030029,311.268555 424.410034,310.875702 422.092133,313.348663 
	C419.796936,315.797455 420.562317,317.833832 423.959015,319.275574 
z"/>
<path fill="#F2F2F2" opacity="1.000000" stroke="none" 
	d="
M245.264679,307.617920 
	C247.791824,310.410980 249.990250,313.026276 252.188660,315.641571 
	C251.777527,316.071503 251.366379,316.501465 250.955231,316.931427 
	C248.200073,316.951691 245.347321,318.577972 243.359070,314.347076 
	C241.942719,311.333099 233.388367,310.856476 231.041214,313.300598 
	C228.757965,315.678223 229.353500,317.969513 232.429657,319.058960 
	C235.707108,320.219666 239.136078,320.953644 242.501144,321.865662 
	C249.787460,323.840424 252.561966,326.834045 252.281479,332.429474 
	C251.995346,338.137207 248.507843,341.321930 241.271835,342.554047 
	C232.323532,344.077667 221.757553,339.640259 222.262619,330.156616 
	C224.329788,330.156616 226.413956,330.156616 228.473480,330.156616 
	C230.946548,336.114960 235.942474,338.359406 242.103378,335.947754 
	C243.548615,335.381989 245.164261,333.712738 245.460892,332.292145 
	C245.658875,331.343933 243.886673,329.315918 242.604126,328.849701 
	C238.406372,327.323669 233.982574,326.432220 229.734695,325.027618 
	C225.854736,323.744629 223.057281,321.346222 222.932907,316.805084 
	C222.795898,311.803314 225.161606,307.921478 229.840668,307.174103 
	C234.733444,306.392548 239.893005,307.281403 245.264679,307.617920 
z"/>
<path fill="#EFEFEF" opacity="1.000000" stroke="none" 
	d="
M325.782959,313.037415 
	C328.294678,319.705109 330.668884,326.008789 333.466187,333.435852 
	C336.551819,325.265839 339.546539,318.406036 341.694641,311.290680 
	C343.250427,306.137238 346.117584,305.515717 350.827087,306.903503 
	C346.489594,318.063080 342.337708,329.057465 337.829071,339.903595 
	C337.330231,341.103638 334.803650,342.006134 333.198669,342.036072 
	C331.805389,342.061981 329.582062,340.988373 329.102264,339.830292 
	C324.604553,328.975189 320.403320,317.997253 316.096893,307.005096 
	C323.000305,305.673920 323.000305,305.673920 325.782959,313.037415 
z"/>
<path fill="#EFEFEF" opacity="1.000000" stroke="none" 
	d="
M273.420013,312.595490 
	C271.485077,312.598297 269.992340,312.598297 268.098907,312.598297 
	C268.098907,322.396454 268.098907,331.994812 268.098907,341.894409 
	C265.612091,341.894409 263.526886,341.894409 261.055328,341.894409 
	C261.055328,332.235291 261.055328,322.641541 261.055328,312.838348 
	C258.604126,312.634399 256.511322,312.460266 254.279221,312.274536 
	C254.279221,310.340393 254.279221,308.591705 254.279221,306.633087 
	C256.478882,306.487701 258.444763,306.357788 260.824707,306.200500 
	C260.824707,302.423431 260.824707,298.668030 260.824707,294.514893 
	C263.263977,294.514893 265.294159,294.514893 267.768585,294.514893 
	C267.768585,298.288086 267.768585,302.057098 267.768585,306.090637 
	C270.580353,306.290375 272.984894,306.461182 276.764862,306.729675 
	C275.585724,309.111420 274.723999,310.852051 273.420013,312.595490 
z"/>
<path fill="#EFEFEF" opacity="1.000000" stroke="none" 
	d="
M405.275543,313.895203 
	C400.443542,316.947266 398.763824,321.250916 398.741943,326.367371 
	C398.720062,331.481689 398.737152,336.596161 398.737152,341.951996 
	C396.397278,341.951996 394.445618,341.951996 392.190308,341.951996 
	C392.190308,330.329926 392.190308,318.615967 392.190308,306.906372 
	C398.140656,305.819214 398.140656,305.819214 399.034058,309.837555 
	C402.927856,308.313477 406.896851,306.759979 411.493530,304.960785 
	C411.493530,308.264587 411.493530,310.176636 411.493530,312.092499 
	C409.403839,312.678406 407.518616,313.207001 405.275543,313.895203 
z"/>
<path fill="#F4F4F4" opacity="1.000000" stroke="none" 
	d="
M170.939011,319.498413 
	C170.137070,327.107056 169.481293,334.328888 168.796051,341.875092 
	C167.205612,341.875092 165.269775,341.875092 163.050278,341.875092 
	C163.050278,330.279938 163.050278,318.545563 163.050278,306.586426 
	C166.086945,306.573334 169.857849,304.518646 169.706375,310.002411 
	C173.631516,308.342590 177.417618,306.741547 181.970703,304.816162 
	C181.970703,308.157867 181.970703,310.195282 181.970703,312.479767 
	C177.017761,312.573364 173.320084,314.696136 170.939011,319.498413 
z"/>
<path fill="#131313" opacity="1.000000" stroke="none" 
	d="
M470.710938,320.849213 
	C464.923584,320.843109 459.604675,320.843109 454.274841,320.843109 
	C454.602753,316.035370 457.431671,313.007996 462.202362,312.198334 
	C466.956268,311.391541 472.299805,314.104187 473.872833,318.026947 
	C475.091064,321.064880 473.124237,320.912628 470.710938,320.849213 
z"/>
<path fill="#131313" opacity="1.000000" stroke="none" 
	d="
M196.662262,313.385040 
	C204.958298,310.632751 209.971252,312.929749 212.151581,320.466980 
	C205.417282,320.466980 198.776520,320.466980 190.491745,320.466980 
	C192.824051,317.717224 194.575867,315.651855 196.662262,313.385040 
z"/>
<path fill="#131313" opacity="1.000000" stroke="none" 
	d="
M369.016846,320.848328 
	C365.545502,320.849213 362.556030,320.849213 359.557465,320.849213 
	C359.877716,315.981537 363.010590,312.789215 367.927795,312.149139 
	C373.595398,311.411407 377.856323,314.372223 379.834320,320.847473 
	C376.296295,320.847473 372.897491,320.847473 369.016846,320.848328 
z"/>
<path fill="#080808" opacity="1.000000" stroke="none" 
	d="
M284.741577,320.940704 
	C287.567749,313.585663 293.034760,310.586639 299.177460,312.693054 
	C304.941498,314.669617 307.862793,321.059540 306.148895,327.942017 
	C304.556854,334.335052 299.485229,337.481079 292.902374,336.159119 
	C286.741577,334.921936 283.570068,329.221466 284.741577,320.940704 
z"/>
</svg>